:version 1.10
:name ASF
:units
  mass 1
  length 1
  angle deg
:documentation
  ASF file generated by Kaydara
:root
  axis xyz
  order  tx ty tz rx ry rz
  position 0 0 0
  orientation 0 0 0
:bonedata
  begin
    id 1
    name SpineDummy
    direction 0.999998 -0.00179978 1.38929e-006
    length 3.60008
    axis 0 0 0 xyz
  end
  begin
    id 2
    name Spine
    direction 0.964365 0.262802 0.0305839
    length 8.13928
    axis 1.33928 -1.75354 15.2838 xyz
    dof rx ry rz
  end
  begin
    id 3
    name Spine1
    direction 0.811168 0.572065 0.12144
    length 7.14954
    axis 2.2224 -6.9761 35.2157 xyz
    dof rx ry rz
  end
  begin
    id 4
    name Neck
    direction 0 0 0
    length 0
    axis 2.2224 -6.9761 35.2157 xyz
    dof rx ry rz
  end
  begin
    id 5
    name HeadDummy
    direction 0.810939 0.572387 0.121455
    length 3.55534
    axis 2.2224 -6.9761 35.2157 xyz
  end
  begin
    id 6
    name Head
    direction 0.998226 -0.000232542 0.0595419
    length 7.35666
    axis -3.03688 -3.41352 -0.0133467 xyz
    dof rx ry rz
  end
  begin
    id 7
    name R_ClavicleDummy
    direction 0.531669 -0.194489 -0.824319
    length 2.49392
    axis 2.2224 -6.9761 35.2157 xyz
  end
  begin
    id 8
    name R_Clavicle
    direction -0.155119 0.0480802 -0.986725
    length 4.485
    axis -54.2764 80.6538 162.779 xyz
    dof rx ry rz
  end
  begin
    id 9
    name R_UpperArm
    direction -0.955567 0.200068 -0.216484
    length 10.1122
    axis -72.9943 12.5026 168.175 xyz
    dof rx ry rz
  end
  begin
    id 10
    name R_Forearm
    direction -0.61433 0.385743 0.688332
    length 9.39148
    axis -117.015 -43.4982 147.875 xyz
    dof rx ry rz
  end
  begin
    id 11
    name R_Hand
    direction -0.699429 0.0170333 0.714499
    length 3.66324
    axis -45.0303 -36.7097 175.478 xyz
    dof rx ry rz
  end
  begin
    id 12
    name L_ClavicleDummy
    direction 0.40287 -0.36502 0.839319
    length 2.49392
    axis 2.2224 -6.9761 35.2157 xyz
  end
  begin
    id 13
    name L_Clavicle
    direction -0.231271 -0.0726419 0.970174
    length 4.485
    axis 18.4357 -75.9711 -162.563 xyz
    dof rx ry rz
  end
  begin
    id 14
    name L_UpperArm
    direction -0.917494 0.144359 0.370629
    length 10.1122
    axis 56.0417 -21.7544 171.058 xyz
    dof rx ry rz
  end
  begin
    id 15
    name L_Forearm
    direction -0.496786 0.615074 -0.612281
    length 9.39148
    axis 89.8094 37.7546 128.927 xyz
    dof rx ry rz
  end
  begin
    id 16
    name L_Hand
    direction -0.409932 0.64962 -0.640274
    length 3.66324
    axis -0.424369 32.133 128.52 xyz
    dof rx ry rz
  end
  begin
    id 17
    name L_ThighDummy
    direction -1.84081e-006 1.87549e-006 1
    length 3.13049
    axis 0 0 0 xyz
  end
  begin
    id 18
    name L_Thigh
    direction -0.947739 0.307978 0.083308
    length 17.9961
    axis 173.219 -4.77873 161.998 xyz
    dof rx ry rz
  end
  begin
    id 19
    name L_Calf
    direction -0.728814 -0.684427 0.0197583
    length 13.3367
    axis 167.331 -1.13214 -136.799 xyz
    dof rx ry rz
  end
  begin
    id 20
    name L_Foot
    direction -0.9028 0.418719 0.0981191
    length 5.8674
    axis 163.436 11.5135 -155.37 xyz
    dof rx ry rz
  end
  begin
    id 21
    name L_Toe0
    direction -0.35341 0.886259 0.299411
    length 4.75286
    axis 169.316 -17.4222 111.74 xyz
    dof rx ry rz
  end
  begin
    id 22
    name R_ThighDummy
    direction 9.32778e-007 -8.82053e-007 -1
    length 3.13049
    axis 0 0 0 xyz
  end
  begin
    id 23
    name R_Thigh
    direction -0.925064 0.37528 -0.0585023
    length 17.9961
    axis -178.698 3.35385 157.919 xyz
    dof rx ry rz
  end
  begin
    id 24
    name R_Calf
    direction -0.68969 -0.718776 -0.0876886
    length 13.3367
    axis -160.504 5.03065 -133.817 xyz
    dof rx ry rz
  end
  begin
    id 25
    name R_Foot
    direction -0.857405 0.418858 -0.299022
    length 5.8674
    axis -161.328 4.38911 -154.413 xyz
    dof rx ry rz
  end
  begin
    id 26
    name R_Toe0
    direction -0.100745 0.952789 -0.286433
    length 4.75286
    axis 171.683 16.6445 96.0359 xyz
    dof rx ry rz
  end
:hierarchy
  begin
    root SpineDummy L_ThighDummy R_ThighDummy
    SpineDummy Spine
    Spine Spine1
    Spine1 Neck
    Neck HeadDummy R_ClavicleDummy L_ClavicleDummy
    HeadDummy Head
    R_ClavicleDummy R_Clavicle
    R_Clavicle R_UpperArm
    R_UpperArm R_Forearm
    R_Forearm R_Hand
    L_ClavicleDummy L_Clavicle
    L_Clavicle L_UpperArm
    L_UpperArm L_Forearm
    L_Forearm L_Hand
    L_ThighDummy L_Thigh
    L_Thigh L_Calf
    L_Calf L_Foot
    L_Foot L_Toe0
    R_ThighDummy R_Thigh
    R_Thigh R_Calf
    R_Calf R_Foot
    R_Foot R_Toe0
  end

:SAMPLES-PER-SECOND 30
:FULLY-SPECIFIED
:DEGREES
316
root  5.45832 29.3432 23.3485 -83.8712 2.98485 86.2075
Spine  -1.1488 3.22952 13.977
Spine1  -1.75207 -7.45223 -15.2894
Neck  3.97569e-016 0 -2.38542e-015
Head  -9.36243 3.65265 -12.2746
R_Clavicle  -0.541323 1.86757 -2.39751
R_UpperArm  48.5576 22.5063 53.6412
R_Forearm  9.69654 -42.8344 30.9049
R_Hand  -0.643639 7.73942 -16.0934
L_Clavicle  -0.17182 -0.497695 1.2804
L_UpperArm  -50.059 -39.0084 37.374
L_Forearm  -13.0218 29.825 48.883
L_Hand  -0.546028 3.49244 -6.73067
L_Thigh  -25.3941 -26.0395 30.4403
L_Calf  -6.02713 2.31039 -17.2833
L_Foot  3.39147 4.42464 9.33855
L_Toe0  0.505156 0.0315939 -6.13612
R_Thigh  -2.14758 11.5996 -0.62898
R_Calf  18.8796 1.16403 3.67985
R_Foot  1.98975 9.09453 21.7216
R_Toe0  -1.75654 -0.267756 -17.1553
317
root  5.95184 29.1125 22.2874 -78.5277 3.66513 86.3009
Spine  -0.544942 2.32527 12.1156
Spine1  -0.622348 -8.81767 -16.9798
Neck  3.97569e-016 0 -2.38542e-015
Head  -15.3794 2.1232 -8.21339
R_Clavicle  -0.344496 -0.68367 -1.87901
R_UpperArm  50.6147 18.2851 59.5586
R_Forearm  5.38826 -42.9091 33.9569
R_Hand  -0.708864 9.527 -17.0579
L_Clavicle  -0.442713 0.684633 3.12521
L_UpperArm  -55.4662 -44.3786 41.3243
L_Forearm  -12.2153 28.5949 49.3687
L_Hand  -0.499984 3.03657 -6.4846
L_Thigh  -27.1305 -27.0075 26.635
L_Calf  -9.98775 2.38173 -17.8666
L_Foot  4.16762 5.62115 10.7936
L_Toe0  0.505156 0.0314786 -6.13612
R_Thigh  1.26333 11.4811 -2.09898
R_Calf  18.668 1.02991 3.2577
R_Foot  2.33667 9.85242 23.4576
R_Toe0  -1.5835 -0.226676 -15.7466
318
root  6.234 28.8742 21.1851 -74.3886 3.86753 86.3375
Spine  0.0449612 1.20686 9.60501
Spine1  0.472882 -9.85548 -17.1427
Neck  3.97569e-016 0 -2.38542e-015
Head  -20.9895 1.28684 -4.78692
R_Clavicle  -0.165832 -3.50802 -1.36884
R_UpperArm  52.6018 12.6798 65.6532
R_Forearm  12.3894 -41.0026 33.585
R_Hand  -0.927235 9.24396 -18.5459
L_Clavicle  -0.784173 1.59991 5.85044
L_UpperArm  -59.9442 -49.2054 44.1376
L_Forearm  -12.0443 27.856 50.6001
L_Hand  -0.453561 3.51988 -5.54326
L_Thigh  -27.7138 -25.379 23.958
L_Calf  -11.0459 1.574 -11.8296
L_Foot  4.8518 7.13794 11.401
L_Toe0  0.496869 0.0316664 -6.14347
R_Thigh  3.84547 11.4752 -3.84756
R_Calf  17.3777 0.638474 2.02873
R_Foot  2.05074 9.37538 24.477
R_Toe0  -1.34858 -0.152103 -12.904
319
root  6.36742 28.6425 20.1036 -70.1094 3.90518 85.7715
Spine  -0.207967 -1.79033 6.45239
Spine1  0.848845 -8.53646 -16.004
Neck  3.97569e-016 0 -2.38542e-015
Head  -25.8534 1.2423 -1.55168
R_Clavicle  -0.0849679 -5.20469 -1.17811
R_UpperArm  52.6558 7.06185 70.3991
R_Forearm  19.7586 -40.0775 33.2883
R_Hand  -0.758118 7.61873 -16.9546
L_Clavicle  -1.14229 0.986367 8.45889
L_UpperArm  -64.2563 -51.0315 46.8086
L_Forearm  -11.7389 26.8518 51.8878
L_Hand  -0.453964 4.22712 -5.13162
L_Thigh  -29.288 -22.8519 22.6403
L_Calf  -10.0146 0.102158 -0.934846
L_Foot  5.32552 9.32191 10.5479
L_Toe0  0.58526 0.0313915 -6.06506
R_Thigh  6.83528 10.7587 -5.34198
R_Calf  16.1329 -0.0127013 -0.00985858
R_Foot  1.91087 9.10045 24.0936
R_Toe0  -0.900843 -0.0644999 -8.49877
320
root  6.49019 28.0828 18.9212 -64.6124 3.25349 85.7503
Spine  -1.18847 -5.23774 3.67369
Spine1  0.00624273 -5.0387 -15.1981
Neck  3.97569e-016 0 -2.38542e-015
Head  -29.6032 1.90498 2.24161
R_Clavicle  0.00278584 -6.14224 -0.758968
R_UpperArm  51.3555 2.76862 73.6745
R_Forearm  20.0434 -40.3965 33.9704
R_Hand  -0.351401 6.60371 -13.1582
L_Clavicle  -1.45099 -0.280614 10.2025
L_UpperArm  -68.2439 -50.7939 51.0069
L_Forearm  -10.6748 26.016 53.1137
L_Hand  -0.462132 4.47446 -5.08731
L_Thigh  -35.4612 -19.6179 22.0177
L_Calf  -11.8338 -1.18976 8.62926
L_Foot  8.0426 16.501 11.2587
L_Toe0  0.833745 0.0304248 -5.87661
R_Thigh  12.1169 10.7092 -6.59493
R_Calf  16.0312 -1.13491 -3.48579
R_Foot  2.37852 9.93003 23.6193
R_Toe0  -0.334997 -0.00683438 -3.09207
